<?xml version="1.0" encoding="utf-8"?>
<!-- Generator: Adobe Illustrator 17.1.0, SVG Export Plug-In . SVG Version: 6.00 Build 0)  -->
<!DOCTYPE svg PUBLIC "-//W3C//DTD SVG 1.1//EN" "http://www.w3.org/Graphics/SVG/1.1/DTD/svg11.dtd">
<svg version="1.1" id="Layer_1" xmlns="http://www.w3.org/2000/svg" xmlns:xlink="http://www.w3.org/1999/xlink" x="0px" y="0px"
	 viewBox="0 0 1059 109" enable-background="new 0 0 1059 109" xml:space="preserve">
<g>
	<path fill="#FFFFFF" stroke="#EAEAEA" stroke-width="2" stroke-miterlimit="10" d="M23.169,24.666v-4.964h19.856h19.856v4.964
		v4.964h4.964h4.964v4.964v4.964h-9.928h-9.928v-4.964v-4.964h-9.928h-9.928v9.928v9.928h19.856H72.81v4.964v4.964h4.964h4.964
		v9.928v9.928h-4.964H72.81v4.964v4.964h-24.82h-24.82v-4.964V79.27h-4.964h-4.964v-4.964v-4.964h9.928h9.928v4.964v4.964h14.892
		h14.892v-9.928v-9.928H43.025H23.169v-4.964v-4.964h-4.964h-4.964v-9.928v-9.928h4.964h4.964V24.666z"/>
	<path fill="#FFFFFF" stroke="#EAEAEA" stroke-width="2" stroke-miterlimit="10" d="M102.594,44.521v-4.964h24.82h24.82v4.964v4.964
		h4.964h4.964v19.856v19.856h-29.784h-29.784v-4.964V79.27h-4.964h-4.964v-4.964v-4.964h4.964h4.964v-4.964v-4.964h19.856h19.856
		v-4.964v-4.964H122.45h-19.856V44.521z M142.306,74.306v-4.964h-14.892h-14.892v4.964v4.964h14.892h14.892V74.306z"/>
	<path fill="#FFFFFF" stroke="#EAEAEA" stroke-width="2" stroke-miterlimit="10" d="M182.018,54.449V39.557h9.928h9.928v14.892
		v14.892h9.928h9.928V54.449V39.557h9.928h9.928v14.892v14.892h-4.964h-4.964v4.964v4.964h-4.964h-4.964v4.964v4.964h-9.928h-9.928
		v-4.964V79.27h-4.964h-4.964v-4.964v-4.964h-4.964h-4.964V54.449z"/>
	<path fill="#FFFFFF" stroke="#EAEAEA" stroke-width="2" stroke-miterlimit="10" d="M261.442,44.521v-4.964h24.82h24.82v4.964v4.964
		h4.964h4.964v9.928v9.928h-24.82h-24.82v4.964v4.964h19.856h19.856v4.964v4.964h-24.82h-24.82v-4.964V79.27h-4.964h-4.964V64.377
		V49.485h4.964h4.964V44.521z M301.154,54.449v-4.964h-14.892H271.37v4.964v4.964h14.892h14.892V54.449z"/>
	<path fill="#FFFFFF" stroke="#EAEAEA" stroke-width="2" stroke-miterlimit="10" d="M489.786,54.449V19.701h9.928h9.928v9.928v9.928
		h19.856h19.856v4.964v4.964h4.964h4.964v19.856v19.856h-9.928h-9.928V69.341V49.485h-14.892h-14.892v19.856v19.856h-9.928h-9.928
		V54.449z"/>
	<path fill="#FFFFFF" stroke="#EAEAEA" stroke-width="2" stroke-miterlimit="10" d="M579.139,44.521v-4.964h24.82h24.82v4.964v4.964
		h4.964h4.964v9.928v9.928h-24.82h-24.819v4.964v4.964h19.855h19.856v4.964v4.964h-24.82h-24.82v-4.964V79.27h-4.964h-4.964V64.377
		V49.485h4.964h4.964V44.521z M618.851,54.449v-4.964h-14.892h-14.892v4.964v4.964h14.892h14.892V54.449z"/>
	<path fill="#FFFFFF" stroke="#EAEAEA" stroke-width="2" stroke-miterlimit="10" d="M747.915,24.666v-4.964h24.819h24.82v4.964
		v4.964h-19.856h-19.855v4.964v4.964h-4.964h-4.964v14.892v14.892h4.964h4.964v4.964v4.964h9.928h9.928v-9.928v-9.928h-4.964h-4.964
		v-4.964v-4.964h14.893h14.892v19.856v19.856h-24.82h-24.819v-4.964V79.27h-4.965h-4.964v-4.964v-4.964h-4.964h-4.964V54.449V39.557
		h4.964h4.964v-4.964v-4.964h4.964h4.965V24.666z"/>
	<path fill="#FFFFFF" stroke="#EAEAEA" stroke-width="2" stroke-miterlimit="10" d="M817.411,44.521v-4.964h24.82h24.82v4.964v4.964
		h4.964h4.964v19.856v19.856h-29.784h-29.784v-4.964V79.27h-4.964h-4.964v-4.964v-4.964h4.964h4.964v-4.964v-4.964h19.856h19.855
		v-4.964v-4.964h-19.855h-19.856V44.521z M857.123,74.306v-4.964h-14.892H827.34v4.964v4.964h14.892h14.892V74.306z"/>
	<path fill="#FFFFFF" stroke="#EAEAEA" stroke-width="2" stroke-miterlimit="10" d="M886.907,64.377v-24.82h29.784h29.784v4.964
		v4.964h4.964h4.964v19.856v19.856h-9.928h-9.929V69.341V49.485h-4.964h-4.964v19.856v19.856h-9.928h-9.928V69.341V49.485h-4.965
		h-4.964v19.856v19.856h-4.964h-4.964V64.377z"/>
	<path fill="#FFFFFF" stroke="#EAEAEA" stroke-width="2" stroke-miterlimit="10" d="M976.26,44.521v-4.964h24.82h24.82v4.964v4.964
		h4.964h4.964v9.928v9.928h-24.82h-24.819v4.964v4.964h19.855h19.856v4.964v4.964h-24.82h-24.82v-4.964V79.27h-4.964h-4.964V64.377
		V49.485h4.964h4.964V44.521z M1015.972,54.449v-4.964h-14.892h-14.892v4.964v4.964h14.892h14.892V54.449z"/>
</g>
<path fill="#FFFFFF" stroke="#EAEAEA" stroke-width="2" stroke-miterlimit="10" d="M448,37V9h-32v28h-29v31h29v29h32V68h29V37H448z
	 M407,58.82l-13.282-7.668L407,43.483V58.82z M433.273,14.718L440.941,28h-15.337L433.273,14.718z M433.458,92.282L425.79,79h15.337
	L433.458,92.282z M434.367,58.843c-4.003,0-7.248-3.245-7.248-7.248s3.245-7.248,7.248-7.248c4.003,0,7.248,3.245,7.248,7.248
	S438.37,58.843,434.367,58.843z M459,59.413V44.076l13.282,7.668L459,59.413z"/>
</svg>
